<svg viewBox="0 0 64 64" xmlns="http://www.w3.org/2000/svg"><mask id="a"><circle cx="32" cy="32" r="32" fill="#fff"/></mask><linearGradient id="f" x1=".3" x2=".8" y1=".3" y2=".8"><stop offset="0" stop-color="#222"/><stop offset="1" stop-color="#111"/></linearGradient><linearGradient id="b" x1="1" x2="0" y1="0" y2="1"><stop offset=".1" stop-color="#7A00F4"/><stop offset=".5" stop-color="#0038F2"/><stop offset=".9" stop-color="#00F9F9"/></linearGradient><linearGradient id="c" x1="0" x2="1" y1="0" y2="1"><stop offset=".1" stop-color="#00F9F9"/><stop offset=".5" stop-color="#00EF33"/><stop offset=".9" stop-color="#FF0"/></linearGradient><linearGradient id="d" x1="1" x2="0" y1="0" y2="1"><stop offset=".1" stop-color="#F70000"/><stop offset=".5" stop-color="#FF6A00"/><stop offset=".9" stop-color="#FF0"/></linearGradient><linearGradient id="e" x1="0" x2="1" y1="0" y2="1"><stop offset=".1" stop-color="#7A00F4"/><stop offset=".5" stop-color="#EA00A8"/><stop offset=".9" stop-color="#F70000"/></linearGradient><g mask="url(#a)"><path fill="url(#b)" d="M0 0h33v33H0"/><path fill="url(#c)" d="M0 31h33v33H0"/><path fill="url(#d)" d="M31 31h33v33H31"/><path fill="url(#e)" d="M31 0h33v33H31"/></g><circle cx="32" cy="32" r="30" fill="url(#f)"/><path fill="#fff" d="M15.35 26.2a1 1.2-20 014.6-1.9c1.8 4.5 5.0 14.5 11.2 14.7a1.2 1 0 010 5c-2.8 0-9.4.3-15.8-17.8 m13.85-.9a1 1.2 0 015 0v5c.2 1.4 2 1.1 7.7-6.6a1.2 1-60 01 4 3c-5.5 7.8-9 9.8-11.7 9.8q-5 0-5-6 m10.8 9.9a1 1.2-50 014-3q1 1 1.9 2.3a1 1.2-40 01-4 3q-1.3-1.7-1.9-2.3"/></svg>